<svg width="108" height="24" viewBox="0 0 108 24" fill="none" xmlns="http://www.w3.org/2000/svg">
<g id="Blend logo 1">
<path id="Vector" d="M45.1224 13.6707C45.8433 14.5962 46.2042 15.6565 46.2042 16.8514C46.2042 17.9309 45.9432 18.8811 45.4213 19.6998C44.8993 20.5195 44.1448 21.1598 43.1578 21.6226C42.1708 22.0853 41.0038 22.3162 39.6558 22.3162H31.0859V2.13281H39.2854C40.6334 2.13281 41.7951 2.35512 42.7726 2.7976C43.7503 3.24117 44.49 3.85787 44.993 4.64879C45.496 5.43971 45.7474 6.33538 45.7474 7.33795C45.7474 8.51361 45.4391 9.49697 44.8225 10.2879C44.2058 11.0788 43.3851 11.6378 42.3602 11.9648C43.4798 12.1775 44.4006 12.745 45.1214 13.6707H45.1224ZM35.0721 10.4609H38.7161C39.6653 10.4609 40.3955 10.244 40.908 9.81008C41.4204 9.37614 41.6772 8.75408 41.6772 7.945C41.6772 7.13594 41.4204 6.50958 40.908 6.06496C40.3955 5.62141 39.6642 5.40016 38.7161 5.40016H35.0721V10.4609ZM41.35 18.3264C41.8908 17.8637 42.1613 17.2085 42.1613 16.3598C42.1613 15.5112 41.8761 14.8121 41.3068 14.3215C40.7375 13.8299 39.9683 13.584 39.0013 13.584H35.0721V19.0201H39.0865C40.0546 19.0201 40.8091 18.7892 41.35 18.3264Z" fill="black"/>
<path id="Vector_2" d="M52.8063 0.921875V22.3206H48.8203V0.921875H52.8063Z" fill="black"/>
<path id="Vector_3" d="M70.7134 15.5237H59.1835C59.2782 16.6801 59.6771 17.5865 60.379 18.2417C61.0808 18.8969 61.9447 19.225 62.9697 19.225C64.4502 19.225 65.5035 18.5794 66.1297 17.2872H70.4283C69.9726 18.8295 69.0992 20.0972 67.8091 21.0901C66.5179 22.083 64.9333 22.5789 63.0549 22.5789C61.5364 22.5789 60.1748 22.2369 58.9699 21.5529C57.764 20.8689 56.8243 19.9005 56.1508 18.6468C55.4774 17.3941 55.1406 15.948 55.1406 14.3096C55.1406 12.671 55.4721 11.196 56.1372 9.94341C56.8011 8.6908 57.7313 7.72671 58.9278 7.05122C60.1232 6.37681 61.4996 6.03906 63.0559 6.03906C64.6122 6.03906 65.8982 6.36719 67.084 7.02238C68.27 7.67757 69.1908 8.60848 69.8452 9.81307C70.4999 11.0176 70.8271 12.4006 70.8271 13.9622C70.8271 14.5404 70.7892 15.0609 70.7134 15.5237ZM66.6989 12.8058C66.68 11.7646 66.3096 10.931 65.5887 10.3047C64.8669 9.6784 63.9841 9.36519 62.9413 9.36519C61.9542 9.36519 61.1239 9.66879 60.4504 10.2758C59.7771 10.8829 59.3634 11.7262 59.2119 12.8058H66.7H66.6989Z" fill="black"/>
<path id="Vector_4" d="M86.4607 7.87764C87.6185 9.08221 88.1971 10.7646 88.1971 12.9235V22.3216H84.2111V13.474C84.2111 12.2021 83.8975 11.223 83.2712 10.539C82.6455 9.85496 81.7907 9.51296 80.7087 9.51296C79.6274 9.51296 78.7403 9.85496 78.1034 10.539C77.4672 11.223 77.1501 12.2021 77.1501 13.474V22.3227H73.1641V6.30225H77.1501V8.29771C77.6816 7.60406 78.36 7.05896 79.1853 6.66354C80.0114 6.26804 80.9175 6.07031 81.9045 6.07031C83.7837 6.07031 85.3029 6.67315 86.4607 7.87764Z" fill="black"/>
<path id="Vector_5" d="M91.3439 9.94369C91.9802 8.69109 92.8479 7.72699 93.9501 7.0515C95.0504 6.37708 96.2744 6.03935 97.6221 6.03935C98.6476 6.03935 99.6243 6.26593 100.555 6.7191C101.485 7.17228 102.225 7.77513 102.776 8.52645V0.921875H106.818V22.3206H102.776V19.9488C102.282 20.7397 101.589 21.3757 100.697 21.8577C99.8043 22.3398 98.7704 22.5803 97.5935 22.5803C96.2652 22.5803 95.0504 22.233 93.9501 21.5393C92.8489 20.8456 91.9802 19.8666 91.3439 18.6043C90.7084 17.3421 90.3906 15.8906 90.3906 14.2521C90.3906 12.6136 90.7084 11.1964 91.3439 9.94369ZM102.234 11.7799C101.854 11.0767 101.342 10.5369 100.697 10.1607C100.052 9.78446 99.3584 9.59633 98.619 9.59633C97.8787 9.59633 97.1947 9.78012 96.5689 10.1457C95.943 10.5123 95.4344 11.0468 95.0449 11.7511C94.6553 12.4554 94.4615 13.2891 94.4615 14.2521C94.4615 15.2151 94.6553 16.0595 95.0449 16.7819C95.4344 17.5044 95.9458 18.0592 96.5827 18.445C97.2178 18.8309 97.8963 19.0233 98.6181 19.0233C99.3381 19.0233 100.051 18.8351 100.696 18.459C101.34 18.0827 101.853 17.544 102.234 16.8397C102.613 16.1364 102.803 15.2921 102.803 14.3098C102.803 13.3276 102.612 12.4833 102.234 11.7799Z" fill="black"/>
<path id="Vector_6" d="M22.2092 4.55634H19.2459V1.60749L17.6295 0H12.0156V11.7451L24.0243 11.7484V6.36157L22.2092 4.55634Z" fill="black"/>
<path id="Vector_7" d="M0 17.1368L1.81519 18.9421H4.77844V21.8909L6.39475 23.4985H12.0087V11.7532L0 11.75V17.1368Z" fill="black"/>
</g>
</svg>
