<svg width="151" height="24" viewBox="0 0 151 24" fill="none" xmlns="http://www.w3.org/2000/svg">
<g id="Conquer logo 1" clip-path="url(#clip0_6071_35625)">
<g id="b">
<g id="Clip path group">
<mask id="mask0_6071_35625" style="mask-type:luminance" maskUnits="userSpaceOnUse" x="0" y="0" width="151" height="24">
<g id="c">
<path id="Vector" d="M151 0H0V24H151V0Z" fill="white"/>
</g>
</mask>
<g mask="url(#mask0_6071_35625)">
<g id="Group">
<g id="d">
<g id="e">
<g id="f">
<g id="Clip path group_2">
<mask id="mask1_6071_35625" style="mask-type:luminance" maskUnits="userSpaceOnUse" x="-1" y="-1" width="153" height="26">
<g id="g">
<path id="Vector_2" d="M151.019 -0.0546875H-0.03125V24.0296H151.019V-0.0546875Z" fill="white"/>
</g>
</mask>
<g mask="url(#mask1_6071_35625)">
<g id="Group_2">
<g id="h">
<path id="i" d="M37.7588 19.3696L42.8969 11.0486C43.2134 10.6092 43.2134 10.0234 42.8969 9.58409L37.7588 1.40066C37.4377 0.952432 36.8642 0.273438 36.2266 0.273438H39.6076C40.2453 0.273438 40.8187 0.952432 41.1399 1.40066L46.2779 9.5974C46.5945 10.0368 46.5945 10.6226 46.2779 11.0619L41.1399 19.3829C40.8187 19.8311 40.2453 20.4924 39.6076 20.4924H36.2403C36.878 20.4924 37.4514 19.8444 37.7726 19.3829" fill="#FF0033"/>
<path id="j" d="M33.0693 16.4835L36.3907 11.1092C36.7073 10.6699 36.7073 10.0841 36.3907 9.64474L33.0234 4.28823L34.73 1.52344L39.7718 9.64474C40.0883 10.0841 40.0883 10.6699 39.7718 11.1092L34.7942 19.2128L33.0693 16.4791V16.4835Z" fill="#FF0033"/>
<path id="k" d="M30.5639 19.373L25.4259 11.0697C25.1093 10.6304 25.1093 10.0446 25.4259 9.60521L30.5639 1.40847C30.8851 0.960244 31.4585 0.28125 32.0962 0.28125H28.6968C28.0591 0.28125 27.4857 0.960244 27.1646 1.40847L22.0265 9.60521C21.7099 10.0446 21.7099 10.6304 22.0265 11.0697L27.1646 19.3907C27.4857 19.8389 28.0591 20.5002 28.6968 20.5002H32.0778C31.4402 20.5002 30.8667 19.8523 30.5456 19.3907" fill="#00CCFF"/>
<path id="l" d="M39.7449 1.58261C38.7861 1.30302 37.6392 1.16545 37.5749 1.12107C37.2401 0.841485 36.7629 0.273438 36.2812 0.273438H39.6669C40.3046 0.273438 40.9422 1.05894 41.167 1.40066L41.7588 2.34148C41.7588 2.34148 40.3688 1.769 39.7495 1.58705" fill="#C10A47"/>
<path id="m" d="M37.3452 19.373L32.2071 11.0697C31.8906 10.6304 31.8906 10.0446 32.2071 9.60521L37.3452 1.40847C37.6663 0.960244 38.2398 0.28125 38.8774 0.28125H35.4781C34.8404 0.28125 34.2669 0.960244 33.9458 1.40847L28.8077 9.60521C28.4912 10.0446 28.4912 10.6304 28.8077 11.0697L33.9458 19.3907C34.2669 19.8389 34.8404 20.5002 35.4781 20.5002H38.8591C38.2214 20.5002 37.648 19.8523 37.3268 19.3907" fill="#0066CC"/>
<path id="n" d="M1.34159 5.02909C2.20865 3.49358 3.51152 2.22435 5.08964 1.37228C6.75493 0.480271 8.63125 0.0276079 10.5351 0.058673C12.8197 -0.0034572 15.063 0.662223 16.9164 1.95808C18.6872 3.23175 19.9442 5.06903 20.458 7.14595H14.8566C14.4758 6.3427 13.8519 5.67258 13.0674 5.21548C12.2784 4.76725 11.3792 4.53648 10.4663 4.5498C9.01202 4.50098 7.61281 5.08234 6.65401 6.13855C5.68603 7.1992 5.19516 8.61489 5.18598 10.3856C5.18598 12.1563 5.67685 13.572 6.65401 14.6326C7.6174 15.6844 9.0166 16.2658 10.4663 16.2081C11.3792 16.2214 12.2784 15.9906 13.0674 15.5424C13.8519 15.0897 14.4758 14.4152 14.8566 13.6119H20.458C19.9442 15.6844 18.6872 17.5173 16.9164 18.782C15.0584 20.0646 12.8151 20.7347 10.5351 20.6815C8.63584 20.7125 6.75493 20.2599 5.09423 19.3678C3.51152 18.5158 2.21323 17.2465 1.34618 15.711C0.428667 14.0779 -0.0346781 12.2406 0.00202249 10.3856C-0.0300905 8.51725 0.428667 6.67554 1.34159 5.02909Z" fill="black"/>
<path id="o" d="M67.2481 20.5302H62.1421L53.6184 8.04202V20.5302H48.5078V0.289062H53.6138L62.1375 12.8394V0.289062H67.2435V20.5302H67.2481Z" fill="black"/>
<path id="p" d="M77.5448 14.6328C78.5816 15.7201 80.0588 16.3059 81.5818 16.2393C83.1003 16.3103 84.5729 15.7157 85.5868 14.6195C87.587 12.0988 87.587 8.58843 85.5868 6.06772C84.5592 4.99376 83.0911 4.4124 81.5818 4.47897C80.0633 4.41684 78.5953 4.99376 77.5448 6.05441C76.5447 7.11506 76.0446 8.54405 76.0446 10.3458C76.0446 12.1476 76.5447 13.5722 77.5448 14.6239M86.5915 24.01L83.9123 20.5219C83.1462 20.6728 82.3663 20.7526 81.5818 20.7526C79.6917 20.7704 77.8246 20.3133 76.1731 19.4257C74.5445 18.5559 73.1957 17.2778 72.2645 15.7201C70.3285 12.4006 70.3285 8.33991 72.2645 5.02039C73.2003 3.47157 74.5537 2.1979 76.1731 1.33252C79.5495 -0.433755 83.6187 -0.433755 86.9952 1.33252C88.6146 2.19346 89.9542 3.47157 90.8717 5.02039C91.8305 6.64465 92.3259 8.4908 92.2938 10.3636C92.3167 12.0012 91.9452 13.6254 91.2111 15.1032C90.5093 16.51 89.4679 17.7304 88.1788 18.6713L92.7755 24.0145H86.596L86.5915 24.01Z" fill="black"/>
<path id="q" d="M100.946 0.289062V12.3911C100.877 13.403 101.208 14.4015 101.873 15.187C103.437 16.505 105.768 16.505 107.332 15.187C108.016 14.4104 108.355 13.4074 108.291 12.3911V0.289062H113.397V12.3778C113.452 13.9843 113.039 15.5731 112.2 16.9621C111.433 18.1826 110.323 19.1678 108.993 19.7891C107.594 20.437 106.061 20.7654 104.506 20.7476C102.979 20.7698 101.465 20.4503 100.084 19.8068C98.7763 19.1899 97.6891 18.2047 96.9734 16.9799C96.1798 15.5731 95.7898 13.9843 95.8403 12.3778V0.289062H100.946Z" fill="black"/>
<path id="r" d="M122.801 4.2432V8.33492H129.614V12.147H122.801V16.576H130.527V20.5257H117.695V0.289062H130.527V4.23877H122.801V4.2432Z" fill="black"/>
<path id="s" d="M139.676 9.39927H142.837C143.603 9.45696 144.36 9.21732 144.943 8.73359C145.434 8.23211 145.691 7.55755 145.645 6.86525C145.681 6.19069 145.429 5.52945 144.943 5.04572C144.36 4.56199 143.603 4.32235 142.837 4.38004H139.676V9.39927ZM145.264 20.5294L140.906 12.8874H139.676V20.5294H134.57V0.29276H143.126C144.58 0.252819 146.021 0.536843 147.338 1.12708C148.429 1.61968 149.342 2.42294 149.952 3.4259C150.53 4.41554 150.829 5.53388 150.815 6.66554C150.833 7.9614 150.42 9.22619 149.636 10.278C148.773 11.3874 147.549 12.1818 146.159 12.5324L151.008 20.5294H145.264Z" fill="black"/>
</g>
</g>
</g>
</g>
</g>
</g>
</g>
</g>
</g>
</g>
</g>
</g>
<defs>
<clipPath id="clip0_6071_35625">
<rect width="151" height="24" fill="white"/>
</clipPath>
</defs>
</svg>
