<svg width="128" height="24" viewBox="0 0 128 24" fill="none" xmlns="http://www.w3.org/2000/svg">
<g id="Topmate Logo 1" clip-path="url(#clip0_6071_35620)">
<path id="Vector" d="M12.3307 23.0437C18.1139 23.0437 22.8021 18.3066 22.8021 12.4632C22.8021 6.61983 18.1139 1.88281 12.3307 1.88281C6.54756 1.88281 1.85938 6.61983 1.85938 12.4632C1.85938 18.3066 6.54756 23.0437 12.3307 23.0437Z" fill="black"/>
<path id="Vector_2" d="M21.2101 11.0481C21.2101 16.8013 16.5913 21.4321 10.9332 21.4321C5.27518 21.4321 0.65625 16.8013 0.65625 11.0481C0.65625 5.29486 5.27518 0.664062 10.9332 0.664062C16.5913 0.664062 21.2101 5.29486 21.2101 11.0481Z" fill="#E44332" stroke="black" stroke-width="2"/>
<path id="Vector_3" d="M15.4681 14.2751C14.7692 15.2734 13.7694 16.0165 12.6181 16.3934C11.4668 16.7703 10.2257 16.7608 9.08015 16.3663C7.93461 15.9717 6.94611 15.2134 6.2623 14.2045C5.57848 13.1955 5.23601 11.9901 5.28605 10.7683C5.33608 9.54654 5.77593 8.37387 6.53991 7.42547C7.30392 6.47706 8.35101 5.80381 9.52485 5.50625C10.6988 5.20871 11.9363 5.30282 13.0529 5.77454C14.1695 6.24626 15.1051 7.07027 15.72 8.12354L10.8895 11.0026L15.4681 14.2751Z" fill="white"/>
<path id="Vector_4" d="M36.2682 18.6696V15.4056H33.4179V9.76562H36.6482V6.66963H33.4179V3.76562H31.3514L29.665 6.76562L27.2422 7.84562V9.76562H29.3324V13.9416C29.3324 17.0376 30.4725 18.6696 34.1067 18.6696H36.2682ZM44.302 19.0536C49.3375 19.0536 51.1189 15.8856 51.1189 12.6696C51.1189 9.45363 49.3375 6.28562 44.302 6.28562C39.2664 6.28562 37.5087 9.45363 37.5087 12.6696C37.5087 15.9096 39.2664 19.0536 44.302 19.0536ZM41.5942 12.6696C41.5942 10.2696 42.3542 9.50163 44.302 9.50163C46.2497 9.50163 47.0097 10.2696 47.0097 12.6696C47.0097 15.0696 46.2497 15.8376 44.302 15.8376C42.3542 15.8376 41.5942 15.0696 41.5942 12.6696ZM61.0696 6.28562C59.0506 6.28562 57.6967 7.02962 56.8891 8.30163V6.66963H52.8037V23.4696H56.8891V16.9896C57.6967 18.2856 59.0506 19.0536 61.0696 19.0536C64.965 19.0536 66.5092 16.0296 66.5092 12.6936C66.5092 9.23762 64.965 6.28562 61.0696 6.28562ZM59.6919 15.8376C57.6017 15.8376 56.8891 14.8056 56.8891 12.6696C56.8891 10.5336 57.6017 9.50163 59.6919 9.50163C61.7109 9.50163 62.4235 10.4376 62.4235 12.6696C62.4235 14.9016 61.7109 15.8376 59.6919 15.8376ZM84.5235 6.28562C82.362 6.28562 81.0556 7.34163 80.3193 8.94963C79.7255 7.26963 78.4429 6.28562 76.4001 6.28562C74.3574 6.28562 73.0985 7.22163 72.3622 8.70963V6.66963H68.2767V18.6696H72.3622V13.0296C72.3622 10.6776 73.1223 9.62163 74.7137 9.62163C76.0676 9.62163 76.6614 10.4616 76.6614 11.9976V18.6696H80.6756V13.0296C80.6756 10.6776 81.4119 9.62163 83.0271 9.62163C84.381 9.62163 84.9748 10.4616 84.9748 11.9976V18.6696H89.0603V11.3736C89.0603 8.22962 87.6351 6.28562 84.5235 6.28562ZM94.8975 18.9816C97.2965 18.9816 98.7691 17.9256 99.3629 16.1736C99.3629 17.1576 99.4342 17.9736 99.553 18.6696H103.068C102.926 17.6856 102.855 16.6296 102.855 15.3576V10.5816C102.855 7.84562 101.002 6.28562 97.249 6.28562C93.496 6.28562 91.3108 8.10962 91.1921 10.6536H95.1587C95.1825 9.59763 95.8713 9.02163 97.2965 9.02163C98.6504 9.02163 99.0779 9.45362 99.0779 10.1736C99.0779 10.7976 98.7929 11.0856 97.7003 11.2776L95.0162 11.7576C91.7384 12.3096 90.9545 13.5816 90.9545 15.5016C90.9545 17.6136 92.5222 18.9816 94.8975 18.9816ZM96.4414 16.2936C95.61 16.2936 94.9687 15.8616 94.9687 15.0216C94.9687 14.2056 95.3963 13.7976 96.5364 13.5096L97.2252 13.3416C97.9615 13.1496 98.5078 13.0056 99.0779 12.5736V13.0296C99.0779 15.1896 97.9853 16.2936 96.4414 16.2936ZM113.069 18.6696V15.4056H110.219V9.76562H113.45V6.66963H110.219V3.76562H108.153L106.466 6.76562L104.044 7.84562V9.76562H106.134V13.9416C106.134 17.0376 107.274 18.6696 110.908 18.6696H113.069ZM120.961 16.2936C119.441 16.2936 118.515 15.6456 118.277 13.7256H127.184C127.232 13.4616 127.256 13.1016 127.256 12.7176C127.256 9.38163 125.712 6.28562 120.866 6.28562C116.306 6.28562 114.31 9.16563 114.31 12.6456C114.31 15.9336 116.021 19.0536 120.866 19.0536C125.189 19.0536 126.804 17.1096 127.208 15.0456H123.242C122.909 15.7656 122.173 16.2936 120.961 16.2936ZM120.914 8.99762C122.505 8.99762 123.242 9.81362 123.384 11.3256H118.325C118.586 9.59762 119.441 8.99762 120.914 8.99762Z" fill="black"/>
</g>
<defs>
<clipPath id="clip0_6071_35620">
<rect width="128" height="24" fill="white"/>
</clipPath>
</defs>
</svg>
